<?xml version="1.0" standalone="no"?>
<!DOCTYPE svg PUBLIC "-//W3C//DTD SVG 20010904//EN"
 "http://www.w3.org/TR/2001/REC-SVG-20010904/DTD/svg10.dtd">
<svg version="1.0" xmlns="http://www.w3.org/2000/svg"
 width="150.000000pt" height="150.000000pt" viewBox="0 0 150.000000 150.000000"
 preserveAspectRatio="xMidYMid meet">

<g transform="translate(0.000000,150.000000) scale(0.100000,-0.100000)"
fill="#6247cb" stroke="none">
<path d="M648 1273 c-60 -2 -100 -8 -105 -16 -18 -24 -115 -249 -109 -254 8
-9 377 249 373 261 -4 13 -24 14 -159 9z"/>
<path d="M893 1248 c41 -102 63 -139 91 -156 29 -17 37 -17 106 -5 41 8 82 16
90 19 9 4 -42 35 -130 79 -152 78 -165 83 -157 63z"/>
<path d="M665 1124 c-99 -69 -187 -132 -195 -141 -13 -14 -13 -15 5 -10 11 3
112 22 225 43 134 24 211 42 222 53 16 15 15 21 -20 99 -20 45 -41 82 -47 82
-5 -1 -91 -57 -190 -126z"/>
<path d="M342 1157 l-104 -62 -54 -95 c-45 -79 -52 -96 -41 -108 22 -21 163
35 216 86 45 43 127 202 117 227 -9 23 -23 18 -134 -48z"/>
<path d="M1104 1066 c-82 -17 -94 -22 -94 -43 0 -9 39 -83 88 -165 66 -113 92
-148 107 -148 25 0 135 143 134 174 0 12 -26 59 -57 106 -64 96 -69 98 -178
76z"/>
<path d="M642 980 c-111 -20 -206 -40 -209 -44 -8 -7 160 -181 191 -198 16 -9
34 6 135 112 63 68 124 134 134 147 l18 23 -33 -1 c-18 -1 -124 -18 -236 -39z"/>
<path d="M795 854 l-138 -147 105 -103 c58 -57 109 -104 115 -104 9 0 68 488
60 496 -2 3 -66 -62 -142 -142z"/>
<path d="M976 969 c-3 -13 -17 -112 -31 -219 -14 -107 -28 -208 -31 -224 -6
-26 -4 -28 16 -23 12 3 69 36 125 74 73 48 105 75 108 92 3 16 -20 64 -79 164
-97 164 -101 168 -108 136z"/>
<path d="M215 871 c-60 -21 -110 -42 -110 -48 0 -24 61 -183 70 -183 10 0 165
247 165 263 0 10 -4 9 -125 -32z"/>
<path d="M286 759 c-48 -78 -84 -145 -79 -150 4 -4 51 -14 103 -21 93 -13 95
-14 100 -42 3 -16 10 -31 16 -33 14 -5 184 174 184 192 0 22 -192 195 -216
195 -16 0 -41 -32 -108 -141z"/>
<path d="M1295 763 c-63 -86 -63 -112 3 -170 61 -54 75 -54 90 1 9 35 8 61 -4
132 -16 91 -20 104 -33 104 -4 0 -29 -30 -56 -67z"/>
<path d="M536 578 c-53 -57 -96 -108 -96 -114 0 -6 23 -30 52 -54 l51 -44 89
3 c73 2 100 8 154 32 36 16 68 37 71 45 4 11 -28 50 -103 125 -60 60 -112 109
-116 109 -3 0 -49 -46 -102 -102z"/>
<path d="M1040 538 c-69 -44 -128 -86 -132 -92 -4 -6 -8 -31 -8 -56 0 -41 6
-51 58 -109 63 -70 82 -73 82 -13 0 37 2 38 150 135 83 53 150 103 150 110 0
8 -23 33 -50 56 -81 68 -101 66 -250 -31z"/>
</g>
</svg>
